<svg width="19" height="22" viewBox="0 0 19 22" fill="none" xmlns="http://www.w3.org/2000/svg">
<path d="M9.3385 0C10.0036 1.0262e-09 10.5805 0.431221 11.734 1.29395L13.4322 2.56348C13.6128 2.69852 13.7033 2.76639 13.8004 2.82324C13.8974 2.88002 14.0007 2.92529 14.2067 3.0166L16.1891 3.89648C17.4793 4.4686 18.1251 4.75466 18.4508 5.32129C18.7763 5.88787 18.6985 6.5896 18.5436 7.99219L18.2975 10.2246C18.2733 10.4436 18.2614 10.5532 18.2613 10.6631C18.2613 10.7732 18.2733 10.8832 18.2975 11.1025L18.5436 13.335C18.6985 14.7376 18.7764 15.4393 18.4508 16.0059C18.1251 16.5725 17.4793 16.8585 16.1891 17.4307L14.2067 18.3096C14.0007 18.4009 13.8974 18.4471 13.8004 18.5039C13.7033 18.5608 13.6128 18.6286 13.4322 18.7637L11.734 20.0332C10.5805 20.8959 10.0036 21.3271 9.3385 21.3271C8.67342 21.3271 8.09654 20.8959 6.94299 20.0332L5.24475 18.7637C5.0644 18.6288 4.97454 18.5607 4.87756 18.5039C4.78049 18.4471 4.67738 18.4009 4.47131 18.3096L2.48791 17.4307C1.19784 16.8586 0.55289 16.5724 0.227168 16.0059C-0.0985536 15.4392 -0.0214963 14.7378 0.133418 13.335L0.380488 11.1025C0.404702 10.8833 0.416621 10.7732 0.416621 10.6631C0.41659 10.5532 0.404662 10.4435 0.380488 10.2246L0.133418 7.99219C-0.0214927 6.5894 -0.098527 5.88791 0.227168 5.32129C0.552876 4.75468 1.19783 4.46855 2.48791 3.89648L4.47131 3.0166C4.67717 2.92532 4.78054 2.88006 4.87756 2.82324C4.97455 2.76643 5.0644 2.69835 5.24475 2.56348L6.94299 1.29395C8.09654 0.431204 8.67342 9.23818e-05 9.3385 0ZM9.3385 6.60449C7.1296 6.60461 5.33873 8.42181 5.3385 10.6631C5.3385 12.9046 7.12946 14.7225 9.3385 14.7227C11.5476 14.7227 13.3385 12.9046 13.3385 10.6631C13.3383 8.42174 11.5475 6.60449 9.3385 6.60449Z" fill="white"/>
</svg>
